PathFileType	4	(X/Y/Z)	OpenSim_Sub03_EMGStiffKnee_Gyro.trc
DataRate	CameraRate	NumFrames	NumMarkers	Units	OrigDataRate	OrigDataStartFrame	OrigNumFrames
100	100	30	8	m	100	6648	7597
Frame#	Time	torso_imu_offset_imu	pelvis_imu_offset_imu	tibia_r_imu_offset_imu	femur_r_imu_offset_imu	tibia_l_imu_offset_imu	femur_l_imu_offset_imu	toes_r_imu_offset_imu	toes_l_imu_offset_imu
				X1	Y1	Z1	X2	Y2	Z2	X3	Y3	Z3	X4	Y4	Z4	X5	Y5	Z5	X6	Y6	Z6	X7	Y7	Z7	X8		Y8	Z8	

6648	66.47000000	0.37687502	0.18413536	-0.18957237	-0.26051007	-0.25371547	-0.02107011	-0.29689628	-0.28395179	-0.96353693	-0.22952289	0.02191804	-0.57851203	-0.43094497	-0.14225690	-1.37949003	-0.72137912	-0.07030721	-1.03028516	0.09238506	-0.21815141	-0.28400149	-0.00111695	0.99982265	-1.09268770
6649	66.48000000	0.31688936	0.18828703	-0.21312032	-0.38423792	-0.28379192	-0.05546529	-0.32254741	-0.23991440	-0.99791178	-0.24067520	0.01664213	-0.51337919	-0.44832632	-0.13348298	-1.28342516	-0.70192167	-0.05906594	-0.99247657	0.08317509	-0.24571863	-0.28666370	0.01133950	0.88644694	-1.10413580
6650	66.49000000	0.26876694	0.18888190	-0.23605084	-0.45062777	-0.28779448	-0.03083705	-0.34000006	-0.22407871	-1.05922527	-0.27308323	0.00091011	-0.46992013	-0.43880572	-0.13534271	-1.14397540	-0.66319381	-0.03672093	-0.94133877	0.04868186	-0.27553719	-0.28058347	-0.01397933	0.79322390	-1.07658391
6651	66.50000000	0.20729277	0.18654913	-0.26721409	-0.51653653	-0.30884506	-0.01926004	-0.31074386	-0.21825622	-1.09657744	-0.34391883	-0.01219885	-0.42961588	-0.41623288	-0.12873849	-1.02478036	-0.62849975	-0.02060728	-0.89191695	0.05682865	-0.33345156	-0.28514265	-0.03736493	0.68546853	-1.00592220
6652	66.51000000	0.14308325	0.18638733	-0.29596566	-0.56240063	-0.34323825	0.04892302	-0.30047339	-0.20985780	-1.11999455	-0.38309414	-0.00777673	-0.41671741	-0.42679757	-0.14164241	-0.94148364	-0.62003411	-0.02515798	-0.82199320	0.00787526	-0.36187953	-0.27562934	-0.04091687	0.60196175	-0.92388616
6653	66.52000000	0.07587033	0.19350927	-0.33654475	-0.60587593	-0.37918180	0.01427916	-0.30914547	-0.20285573	-1.16320243	-0.39752685	0.03085152	-0.43578694	-0.44657456	-0.16479813	-0.85138424	-0.62190037	-0.05887979	-0.70902657	-0.00963314	-0.39096395	-0.29630436	-0.05223158	0.53522330	-0.82204033
6654	66.53000000	-0.00891776	0.21022832	-0.36839073	-0.63953307	-0.43394098	-0.01863126	-0.35290155	-0.20079078	-1.20455095	-0.40466134	0.08270795	-0.43606298	-0.47078899	-0.17166883	-0.74975874	-0.63318488	-0.08921703	-0.56540287	-0.00813682	-0.43700797	-0.28526069	-0.04765533	0.50061794	-0.74010567
6655	66.54000000	-0.09739533	0.23045441	-0.39319824	-0.63865571	-0.48507030	-0.01297463	-0.34034239	-0.18053678	-1.27157178	-0.42025958	0.11192714	-0.43683468	-0.47117089	-0.17547078	-0.66432161	-0.62492047	-0.11717874	-0.43012150	0.00650225	-0.47896459	-0.29494329	-0.05829127	0.49297979	-0.70363760
6656	66.55000000	-0.19201159	0.26067418	-0.41510953	-0.65328736	-0.54226699	-0.01556794	-0.33116489	-0.16191480	-1.31866481	-0.44641782	0.13354718	-0.42290868	-0.45954193	-0.18792322	-0.55740566	-0.59693272	-0.14315064	-0.31301125	0.05990968	-0.56050438	-0.34755982	-0.10400014	0.40095753	-0.70888838
6657	66.56000000	-0.29791394	0.30750222	-0.42688788	-0.66948430	-0.58878461	-0.02292141	-0.39264296	-0.14563782	-1.33705412	-0.43906224	0.16582404	-0.38994936	-0.48060301	-0.20229614	-0.44418528	-0.54436825	-0.14778036	-0.22246922	0.20586948	-0.68884219	-0.40471630	-0.09409482	0.24386056	-0.76704147
6658	66.57000000	-0.37387821	0.35451589	-0.46402250	-0.65981996	-0.64097734	-0.02160121	-0.45278961	-0.14779401	-1.39955436	-0.42176425	0.21880938	-0.37396265	-0.51472864	-0.21760255	-0.34416078	-0.46435926	-0.16835221	-0.14169238	0.22012431	-0.78769403	-0.45582284	-0.07352652	0.08479755	-0.86109000
6659	66.58000000	-0.44587903	0.40980684	-0.48894237	-0.66633477	-0.69887144	-0.01543665	-0.51652554	-0.15202054	-1.47690864	-0.41586758	0.27313871	-0.34889403	-0.58858030	-0.21480367	-0.20517768	-0.34452149	-0.17408944	-0.05246628	0.16403703	-0.90411823	-0.51431771	-0.06566437	-0.11403434	-0.95776225
6660	66.59000000	-0.52195666	0.47769643	-0.50846054	-0.67274514	-0.73511773	0.01385961	-0.57030924	-0.15595759	-1.52867178	-0.40096708	0.33457984	-0.30051110	-0.64305527	-0.22530925	-0.05287244	-0.18089007	-0.14491413	0.02295920	0.15096699	-1.04704039	-0.57245763	0.01779073	-0.31555753	-1.06464516
6661	66.60000000	-0.59081683	0.55572852	-0.52176006	-0.68595089	-0.76552689	0.06245273	-0.62026636	-0.15797703	-1.59877496	-0.41890805	0.42562953	-0.27646630	-0.66904807	-0.22715647	0.06773688	0.00562262	-0.14332795	0.07478358	0.13620679	-1.20359814	-0.63974187	-0.25921060	-0.78040914	-1.06456612
6662	66.61000000	-0.66250796	0.62078508	-0.52188605	-0.70064132	-0.76143676	0.14190606	-0.67494037	-0.17701632	-1.68085179	-0.47113611	0.50136907	-0.21800269	-0.77842287	-0.29155960	0.23239842	0.14471038	-0.22220112	0.13631214	0.13043779	-1.37570497	-0.72180127	-0.36718561	-1.94388838	-0.90211986
6663	66.62000000	-0.72498878	0.66350684	-0.50650424	-0.70214347	-0.74742336	0.23194461	-0.70158961	-0.18638244	-1.77564766	-0.55051959	0.55279109	-0.17905269	-0.80968122	-0.38788157	0.44669833	0.14913639	-0.30626202	0.23019365	0.08871377	-1.57910150	-0.78851771	-1.37661832	-3.30557245	-0.59378742
6664	66.63000000	-0.77173556	0.69999070	-0.47888552	-0.65620394	-0.70049825	0.30795174	-0.69736475	-0.22577561	-1.88562064	-0.60286298	0.58950102	-0.10487463	-1.09262805	-0.45224021	0.86909414	0.11655210	-0.32915711	0.31028833	0.07614053	-1.81838267	-0.86311021	-0.14882078	-4.66394099	-0.00998359
6665	66.64000000	-0.78319914	0.70491267	-0.45322203	-0.59364138	-0.58650199	0.35153874	-0.71814525	-0.24866703	-1.99077347	-0.55425701	0.62189461	0.04350693	-1.52560193	-0.66124335	1.66332970	0.08252916	-0.35065038	0.31837085	-0.00854348	-2.11320149	-0.91156672	1.32978958	-5.16638001	0.68728987
6666	66.65000000	-0.71935867	0.64285973	-0.44706638	-0.48636500	-0.38100394	0.31576573	-0.69223944	-0.23099751	-2.11650177	-0.42045968	0.66011327	0.17125027	-0.66553320	-1.30784297	2.02955053	0.19118989	-0.27763907	0.28190286	-0.05655324	-2.47480031	-0.99067194	-0.19144038	-4.98452156	1.84978053
6667	66.66000000	-0.56271438	0.54266277	-0.46499504	-0.31298437	-0.29559467	0.13913375	-0.60048612	-0.21685030	-2.25356074	-0.19246408	0.67406070	0.35516301	0.79765834	-1.17304496	0.83014808	0.46018792	-0.09083066	0.19256785	0.02815622	-2.92445512	-1.14036903	-1.32952462	-4.60892487	3.11938564
6668	66.67000000	-0.42997713	0.52833101	-0.42106374	0.02058501	-0.31754239	-0.19270223	-0.53917845	-0.24394604	-2.35821652	0.04436946	0.67775433	0.58195860	-1.95076909	0.26342648	0.18336913	0.36757321	-0.01938190	0.07779697	0.06873789	-3.37822712	-1.39833255	-2.09029271	-2.76854097	2.26229949
6669	66.68000000	-0.32201387	0.60953389	-0.34563676	0.24502008	-0.42183389	-0.60757333	-0.61480880	-0.36412628	-2.42024469	0.27017887	0.64707967	0.83223304	-4.44195221	0.06457101	1.22601677	0.12251131	-0.42581859	-0.05799608	0.08439468	-3.70760575	-1.81780649	-2.72889048	-0.87226273	1.28526824
6670	66.69000000	-0.23759126	0.68132710	-0.29255445	0.27457874	-0.47945728	-0.78741962	-0.77005490	-0.45113780	-2.49651359	0.47232226	0.61494490	1.12868683	-3.48268801	-0.90332049	2.10675954	0.15416324	-0.85949039	-0.07307631	0.39665395	-4.01143658	-2.46245071	-1.59236137	-0.26392585	0.90241524
6671	66.70000000	-0.15137492	0.68438318	-0.28505816	0.15944885	-0.50261821	-0.60533990	-0.89825595	-0.53785463	-2.54340998	0.32154465	0.66323679	1.47029067	-0.32381786	-0.96850673	2.06943748	0.06415014	-0.63841737	0.10158283	1.06923938	-4.17727084	-3.17968288	-0.63634685	-0.16520221	0.45251370
6672	66.71000000	-0.07659314	0.63351438	-0.21763798	-0.06800091	-0.52923366	-0.32236344	-0.60319203	-0.67609133	-2.42894242	-0.12047622	0.73985270	1.71706541	1.60830653	-0.53388293	1.84594867	-0.29789047	-0.34608804	0.29935485	1.82754546	-4.43090692	-3.79128569	-0.39722550	-0.09430824	0.17486548
6673	66.72000000	-0.02331402	0.58895387	-0.13529845	-0.29983711	-0.45157401	-0.12332638	-0.13345932	-0.91056041	-2.26648297	-0.55953085	0.88603300	1.92162749	1.58054608	-0.03747752	1.79922368	-0.02525931	-0.31966495	0.45357606	1.90700091	-4.67376963	-4.00508944	-0.19940936	-0.14435546	0.04113452
6674	66.73000000	-0.02125242	0.56547672	-0.11339533	-0.45862781	-0.33619819	0.00601459	0.10227673	-1.12773540	-2.18699067	-1.25782822	1.24454021	2.14515447	1.26561134	-0.28329151	1.43834404	0.54229343	-0.27675187	0.59188679	1.62538281	-4.57749006	-4.06157002	-0.02034109	-0.15314132	-0.06138709
6675	66.74000000	-0.07414567	0.54545084	-0.08546444	-0.55328513	-0.28915705	0.06106143	0.15845590	-1.15861021	-2.11515059	-1.51928712	1.17149047	2.19445837	0.46585211	-0.31789811	0.95290864	0.67973514	-0.17417854	0.85288863	1.35995178	-4.35086185	-4.16793300	0.09612950	-0.16892832	-0.11657399
6676	66.75000000	-0.15240654	0.49032495	-0.00650778	-0.56438503	-0.24529177	0.05922168	0.09907315	-1.14108460	-1.95537710	-1.16245538	0.75823388	2.21026845	-0.26415288	-0.24219054	0.81312508	0.80263700	-0.12987314	1.18984788	1.22287014	-4.20703809	-4.23174951	0.07711892	-0.14365937	-0.11441571
6677	66.76000000	-0.21365566	0.42540966	0.08572033	-0.49681191	-0.13178549	0.05882260	0.03963602	-0.99856489	-1.70843507	-0.93898923	0.52644021	2.24735668	-0.51364102	-0.32212817	0.70901171	1.03026241	-0.17954130	1.29736177	1.31380967	-3.33861418	-3.67380898	0.06191918	-0.10808659	-0.11469996
